name rise30.3154peak39.0474fall46.5389.mot
datacolumns 19
datarows 33
range 6.11664400000000 6.16997600000000
endheader
time	ground_force1_vx	ground_force1_vy	ground_force1_vz	ground_force1_px	ground_force1_py	ground_force1_pz	ground_force2_vx	ground_force2_vy	ground_force2_vz	ground_force2_px	ground_force2_py	ground_force2_pz	ground_torque1_x	ground_torque1_y	ground_torque1_z	ground_torque2_x	ground_torque2_y	ground_torque2_z	
6.11664400000000	49.81052500000000	750.88464999999997	65.68806200000000	0.30434200000000	0.00000000000000	0.13980600000000	0.00000000000000	0.00000000000000	0.00000000000000	0.00000000000000	0.00000000000000	0.00000000000000	0.00000000000000	25.45533300000000	0.00000000000000	0.00000000000000	0.00000000000000	0.00000000000000	
6.11831100000000	48.97636200000000	752.11647600000003	65.65903299999999	0.30294700000000	0.00000000000000	0.13984100000000	0.00000000000000	0.00000000000000	0.00000000000000	0.00000000000000	0.00000000000000	0.00000000000000	0.00000000000000	25.46522300000000	0.00000000000000	0.00000000000000	0.00000000000000	0.00000000000000	
6.11998100000000	48.15631100000000	753.28421000000003	65.62613800000000	0.30159300000000	0.00000000000000	0.13987600000000	0.00000000000000	0.00000000000000	0.00000000000000	0.00000000000000	0.00000000000000	0.00000000000000	0.00000000000000	25.47311400000000	0.00000000000000	0.00000000000000	0.00000000000000	0.00000000000000	
6.12164700000000	47.35137100000000	754.38688999999999	65.58952400000000	0.30028200000000	0.00000000000000	0.13990900000000	0.00000000000000	0.00000000000000	0.00000000000000	0.00000000000000	0.00000000000000	0.00000000000000	0.00000000000000	25.47904400000000	0.00000000000000	0.00000000000000	0.00000000000000	0.00000000000000	
6.12331600000000	46.56241800000000	755.42347700000005	65.54926399999999	0.29901400000000	0.00000000000000	0.13994100000000	0.00000000000000	0.00000000000000	0.00000000000000	0.00000000000000	0.00000000000000	0.00000000000000	0.00000000000000	25.48301700000000	0.00000000000000	0.00000000000000	0.00000000000000	0.00000000000000	
6.12497600000000	45.79020200000000	756.39287500000000	65.50536500000000	0.29779000000000	0.00000000000000	0.13997200000000	0.00000000000000	0.00000000000000	0.00000000000000	0.00000000000000	0.00000000000000	0.00000000000000	0.00000000000000	25.48500600000000	0.00000000000000	0.00000000000000	0.00000000000000	0.00000000000000	
6.12664800000000	45.03534700000000	757.29395299999999	65.45776900000000	0.29661200000000	0.00000000000000	0.14000200000000	0.00000000000000	0.00000000000000	0.00000000000000	0.00000000000000	0.00000000000000	0.00000000000000	0.00000000000000	25.48495300000000	0.00000000000000	0.00000000000000	0.00000000000000	0.00000000000000	
6.12831300000000	44.29836000000000	758.12555899999995	65.40635800000000	0.29547800000000	0.00000000000000	0.14003000000000	0.00000000000000	0.00000000000000	0.00000000000000	0.00000000000000	0.00000000000000	0.00000000000000	0.00000000000000	25.48277200000000	0.00000000000000	0.00000000000000	0.00000000000000	0.00000000000000	
6.12998400000000	43.57963000000000	758.88654599999995	65.35095699999999	0.29438900000000	0.00000000000000	0.14005600000000	0.00000000000000	0.00000000000000	0.00000000000000	0.00000000000000	0.00000000000000	0.00000000000000	0.00000000000000	25.47835300000000	0.00000000000000	0.00000000000000	0.00000000000000	0.00000000000000	
6.13164700000000	42.87943100000000	759.57578699999999	65.29134300000000	0.29334400000000	0.00000000000000	0.14008100000000	0.00000000000000	0.00000000000000	0.00000000000000	0.00000000000000	0.00000000000000	0.00000000000000	0.00000000000000	25.47156000000000	0.00000000000000	0.00000000000000	0.00000000000000	0.00000000000000	
6.13331400000000	42.19792700000000	760.19219499999997	65.22724500000000	0.29234400000000	0.00000000000000	0.14010400000000	0.00000000000000	0.00000000000000	0.00000000000000	0.00000000000000	0.00000000000000	0.00000000000000	0.00000000000000	25.46223500000000	0.00000000000000	0.00000000000000	0.00000000000000	0.00000000000000	
6.13497800000000	41.53518000000000	760.73473799999999	65.15835100000000	0.29138700000000	0.00000000000000	0.14012500000000	0.00000000000000	0.00000000000000	0.00000000000000	0.00000000000000	0.00000000000000	0.00000000000000	0.00000000000000	25.45020400000000	0.00000000000000	0.00000000000000	0.00000000000000	0.00000000000000	
6.13664400000000	40.89114800000000	761.20245899999998	65.08431500000000	0.29047300000000	0.00000000000000	0.14014400000000	0.00000000000000	0.00000000000000	0.00000000000000	0.00000000000000	0.00000000000000	0.00000000000000	0.00000000000000	25.43527200000000	0.00000000000000	0.00000000000000	0.00000000000000	0.00000000000000	
6.13831000000000	40.26569500000000	761.59449099999995	65.00475800000000	0.28960000000000	0.00000000000000	0.14016100000000	0.00000000000000	0.00000000000000	0.00000000000000	0.00000000000000	0.00000000000000	0.00000000000000	0.00000000000000	25.41723200000000	0.00000000000000	0.00000000000000	0.00000000000000	0.00000000000000	
6.13997800000000	39.65859900000000	761.91006900000002	64.91928000000000	0.28876700000000	0.00000000000000	0.14017600000000	0.00000000000000	0.00000000000000	0.00000000000000	0.00000000000000	0.00000000000000	0.00000000000000	0.00000000000000	25.39586500000000	0.00000000000000	0.00000000000000	0.00000000000000	0.00000000000000	
6.14164600000000	39.06955000000000	762.14854800000001	64.82746000000000	0.28797300000000	0.00000000000000	0.14018900000000	0.00000000000000	0.00000000000000	0.00000000000000	0.00000000000000	0.00000000000000	0.00000000000000	0.00000000000000	25.37094300000000	0.00000000000000	0.00000000000000	0.00000000000000	0.00000000000000	
6.14331100000000	38.49816400000000	762.30941299999995	64.72886400000000	0.28721500000000	0.00000000000000	0.14019900000000	0.00000000000000	0.00000000000000	0.00000000000000	0.00000000000000	0.00000000000000	0.00000000000000	0.00000000000000	25.34222900000000	0.00000000000000	0.00000000000000	0.00000000000000	0.00000000000000	
6.14498200000000	37.94398600000000	762.39229100000000	64.62305100000000	0.28649200000000	0.00000000000000	0.14020600000000	0.00000000000000	0.00000000000000	0.00000000000000	0.00000000000000	0.00000000000000	0.00000000000000	0.00000000000000	25.30948200000000	0.00000000000000	0.00000000000000	0.00000000000000	0.00000000000000	
6.14664800000000	37.40649600000000	762.39696200000003	64.50957500000000	0.28580100000000	0.00000000000000	0.14021100000000	0.00000000000000	0.00000000000000	0.00000000000000	0.00000000000000	0.00000000000000	0.00000000000000	0.00000000000000	25.27245900000000	0.00000000000000	0.00000000000000	0.00000000000000	0.00000000000000	
6.14831600000000	36.88511900000000	762.32336799999996	64.38799700000000	0.28514200000000	0.00000000000000	0.14021400000000	0.00000000000000	0.00000000000000	0.00000000000000	0.00000000000000	0.00000000000000	0.00000000000000	0.00000000000000	25.23091900000000	0.00000000000000	0.00000000000000	0.00000000000000	0.00000000000000	
6.14998200000000	36.37922700000000	762.17161899999996	64.25788300000001	0.28451000000000	0.00000000000000	0.14021400000000	0.00000000000000	0.00000000000000	0.00000000000000	0.00000000000000	0.00000000000000	0.00000000000000	0.00000000000000	25.18461900000000	0.00000000000000	0.00000000000000	0.00000000000000	0.00000000000000	
6.15164700000000	35.88815000000000	761.94200300000000	64.11881300000000	0.28390400000000	0.00000000000000	0.14021100000000	0.00000000000000	0.00000000000000	0.00000000000000	0.00000000000000	0.00000000000000	0.00000000000000	0.00000000000000	25.13332600000000	0.00000000000000	0.00000000000000	0.00000000000000	0.00000000000000	
6.15331000000000	35.41118200000000	761.63498800000002	63.97038400000000	0.28332000000000	0.00000000000000	0.14020600000000	0.00000000000000	0.00000000000000	0.00000000000000	0.00000000000000	0.00000000000000	0.00000000000000	0.00000000000000	25.07680900000000	0.00000000000000	0.00000000000000	0.00000000000000	0.00000000000000	
6.15498300000000	34.94758600000000	761.25122799999997	63.81221700000000	0.28275700000000	0.00000000000000	0.14019800000000	0.00000000000000	0.00000000000000	0.00000000000000	0.00000000000000	0.00000000000000	0.00000000000000	0.00000000000000	25.01485000000000	0.00000000000000	0.00000000000000	0.00000000000000	0.00000000000000	
6.15664400000000	34.49660300000000	760.79156499999999	63.64395800000000	0.28221200000000	0.00000000000000	0.14018700000000	0.00000000000000	0.00000000000000	0.00000000000000	0.00000000000000	0.00000000000000	0.00000000000000	0.00000000000000	24.94724000000000	0.00000000000000	0.00000000000000	0.00000000000000	0.00000000000000	
6.15831700000000	34.05745900000000	760.25703099999998	63.46528300000000	0.28168100000000	0.00000000000000	0.14017400000000	0.00000000000000	0.00000000000000	0.00000000000000	0.00000000000000	0.00000000000000	0.00000000000000	0.00000000000000	24.87378200000000	0.00000000000000	0.00000000000000	0.00000000000000	0.00000000000000	
6.15998100000000	33.62937000000000	759.64884800000004	63.27590400000000	0.28116200000000	0.00000000000000	0.14015800000000	0.00000000000000	0.00000000000000	0.00000000000000	0.00000000000000	0.00000000000000	0.00000000000000	0.00000000000000	24.79429700000000	0.00000000000000	0.00000000000000	0.00000000000000	0.00000000000000	
6.16164400000000	33.21154600000000	758.96842600000002	63.07556800000000	0.28065100000000	0.00000000000000	0.14013900000000	0.00000000000000	0.00000000000000	0.00000000000000	0.00000000000000	0.00000000000000	0.00000000000000	0.00000000000000	24.70862100000000	0.00000000000000	0.00000000000000	0.00000000000000	0.00000000000000	
6.16331000000000	32.80320400000000	758.21736499999997	62.86406500000000	0.28014600000000	0.00000000000000	0.14011800000000	0.00000000000000	0.00000000000000	0.00000000000000	0.00000000000000	0.00000000000000	0.00000000000000	0.00000000000000	24.61660700000000	0.00000000000000	0.00000000000000	0.00000000000000	0.00000000000000	
6.16498200000000	32.40356700000000	757.39744800000005	62.64122500000000	0.27964400000000	0.00000000000000	0.14009400000000	0.00000000000000	0.00000000000000	0.00000000000000	0.00000000000000	0.00000000000000	0.00000000000000	0.00000000000000	24.51813100000000	0.00000000000000	0.00000000000000	0.00000000000000	0.00000000000000	
6.16664300000000	32.01187400000000	756.51063799999997	62.40692400000000	0.27914200000000	0.00000000000000	0.14006700000000	0.00000000000000	0.00000000000000	0.00000000000000	0.00000000000000	0.00000000000000	0.00000000000000	0.00000000000000	24.41308800000000	0.00000000000000	0.00000000000000	0.00000000000000	0.00000000000000	
6.16830900000000	31.62738300000000	755.55907300000001	62.16108600000000	0.27863600000000	0.00000000000000	0.14003800000000	0.00000000000000	0.00000000000000	0.00000000000000	0.00000000000000	0.00000000000000	0.00000000000000	0.00000000000000	24.30139700000000	0.00000000000000	0.00000000000000	0.00000000000000	0.00000000000000	
6.16997600000000	31.24937600000000	754.54506300000003	61.90368200000000	0.27812500000000	0.00000000000000	0.14000600000000	0.00000000000000	0.00000000000000	0.00000000000000	0.00000000000000	0.00000000000000	0.00000000000000	0.00000000000000	24.18300100000000	0.00000000000000	0.00000000000000	0.00000000000000	0.00000000000000	
